<?xml version="1.0" standalone="no"?>
<!DOCTYPE svg PUBLIC "-//W3C//DTD SVG 1.1//EN" "http://www.w3.org/Graphics/SVG/1.1/DTD/svg11.dtd" >
<!--
2013-9-30: Created.
-->
<svg>
<metadata>
Created by iconfont
</metadata>
<defs>

<font id="iconfont" horiz-adv-x="1024" >
  <font-face
    font-family="iconfont"
    font-weight="500"
    font-stretch="normal"
    units-per-em="1024"
    ascent="896"
    descent="-128"
  />
    <missing-glyph />
    
    <glyph glyph-name="caozuorizhi" unicode="&#58984;" d="M1008.712033 490.560054l-58.319417-57.03643-159.718403 158.428416 58.324417 57.03943c17.729823 17.734823 45.624544 20.279797 60.824392 5.076949l105.213948-102.680973C1028.99683 536.199598 1026.446856 508.309877 1008.712033 490.560054L1008.712033 490.560054 1008.712033 490.560054 1008.712033 490.560054 1008.712033 490.560054zM762.810492 565.349307l160.97839-157.168428L540.98871 30.450655c-1.269987-1.264987-6.364936-6.344937-13.949861-7.604924-1.254987 0-1.254987 0-2.544975-1.264987l-200.267997-62.129379c-5.071949-1.269987-11.411886-1.269987-15.221848 2.544975-3.792962 3.789962-5.062949 8.869911-2.549975 15.219848l63.394366 196.477035c0 1.244988 0 1.244988 1.271987 2.529975 1.257987 6.354936 6.336937 13.939861 8.844912 15.219848l73.529265 67.179328L210.157018 258.622374c-10.151898 0-19.02181 11.434886-19.02181 20.269797 0 10.169898 8.869911 21.559784 19.02181 21.559784l281.389186 0L762.810492 565.349307 762.810492 565.349307zM491.546205 43.125529l-98.884011 97.589024-26.621734-82.399176 41.831582-41.824582L491.546205 43.125529 491.546205 43.125529zM757.730543 503.234928c-5.074949 5.059949-15.224848 5.059949-20.279797 0L437.01675 209.163868c-6.334937-5.059949-6.334937-15.204848 0-20.274797 5.076949-5.069949 15.226848-5.069949 20.286797 0l299.146009 294.064059C762.810492 488.02708 762.810492 496.899991 757.730543 503.234928L757.730543 503.234928 757.730543 503.234928 757.730543 503.234928 757.730543 503.234928zM89.719223-70.96333c-10.126899 0-20.261797 3.809962-20.261797 13.939861L69.457425 744.066519c-1.264987 19.01681 11.411886 15.201848 25.339747 15.201848l69.714303 0 0-26.616734c0-10.146899 11.399886-19.01681 22.814772-19.01681 10.151898 0 22.831772 8.869911 22.831772 19.01681l0 26.616734 103.935961 0 0-26.616734c0-10.146899 11.396886-19.01681 22.814772-19.01681 10.151898 0 22.831772 8.869911 22.831772 19.01681l0 26.616734 95.064049 0 0-26.616734c0-10.146899 11.399886-19.01681 22.819772-19.01681 10.161898 0 22.826772 8.869911 22.826772 19.01681l0 26.616734 95.071049 0 0-26.616734c0-10.146899 11.414886-19.01681 22.824772-19.01681 10.144899 0 22.824772 8.869911 22.824772 19.01681l0 26.616734 79.839202 0c10.149899 0 16.489835-5.054949 16.489835-15.201848l0-131.828682 58.324417 57.03443 0 74.794252c0 41.829582-31.694683 72.244278-74.814252 72.244278l-81.114189 0L639.896721 865.762302c0 10.151898-11.409886 19.01681-22.829772 19.01681-10.134899 0-22.809772-8.864911-22.809772-19.01681l0-49.434506-95.071049 0L499.186128 865.762302c0 10.151898-11.399886 19.01681-22.834772 19.01681-10.146899 0-22.804772-8.864911-22.804772-19.01681l0-49.434506-95.074049 0L358.472535 865.762302c0 10.151898-11.411886 19.01681-22.826772 19.01681-10.151898 0-22.814772-8.864911-22.814772-19.01681l0-49.434506L208.887031 816.327797 208.887031 865.762302c0 10.151898-11.409886 19.01681-22.826772 19.01681-10.149899 0-22.811772-8.864911-22.811772-19.01681l0-49.434506L94.796172 816.327797c-57.03643 0-84.921151-30.411696-84.921151-72.244278l0-799.822002c0-41.809582 38.01662-72.249278 81.131189-72.249278l628.709713 0c43.094569 0 74.789252 30.439696 74.789252 72.249278L794.505175 220.593754l-58.314417-57.03443 0-220.536795c0-10.159898-6.339937-13.95486-16.474835-13.95486M587.867241 599.558964 208.887031 599.558964c-10.149899 0-17.734823-12.661873-17.734823-21.529785 0-10.146899 7.604924-21.549785 17.734823-21.549785l378.98021 0c10.164898 0 17.749823 12.681873 17.749823 21.549785C605.617064 586.896091 598.01714 599.558964 587.867241 599.558964L587.867241 599.558964 587.867241 599.558964 587.867241 599.558964 587.867241 599.558964zM587.867241 453.802422 208.887031 453.802422c-10.149899 0-17.734823-12.661873-17.734823-21.544785 0-10.149899 7.604924-21.529785 17.734823-21.529785l378.98021 0c10.164898 0 17.749823 12.676873 17.749823 21.529785C605.617064 441.140549 598.01714 453.802422 587.867241 453.802422L587.867241 453.802422 587.867241 453.802422 587.867241 453.802422 587.867241 453.802422z"  horiz-adv-x="1024" />

    
    <glyph glyph-name="jiaoseguanli" unicode="&#60002;" d="M792.703177 361.547226c-49.288352-33.217439-108.257215-52.515189-171.718341-52.515189-63.271312 0-122.050361 19.171208-171.1489 52.135561-132.996298-65.042909-224.866244-203.290726-224.866244-363.303875 0-169.314031 793.232441-166.972993 793.232441 0C1018.138862 158.2565 926.079103 296.694131 792.703177 361.547226L792.703177 361.547226 792.703177 361.547226zM354.359526 625.00897c0 149.636653 119.329695 270.99103 266.62531 270.99103 147.295615 0 266.62531-121.291105 266.62531-270.99103 0-149.636653-119.329695-270.864488-266.62531-270.864488C473.68922 354.144482 354.359526 475.372316 354.359526 625.00897L354.359526 625.00897 354.359526 625.00897 354.359526 625.00897zM177.959107-16.182508c0-6.200589 0.94907-12.084821 2.783938-17.905781C80.584558-17.827562 5.797867 14.250993 5.797867 62.590276c0 138.500902 79.468768 258.146954 194.622556 314.458422 40.177283-27.01685 88.010395-43.340849 139.576515-45.049174C241.040605 249.303918 177.959107 124.02672 177.959107-16.182508L177.959107-16.182508 177.959107-16.182508zM310.006336 625.00897c0 68.775916 21.638789 132.426856 58.399421 184.309332C361.952083 809.887744 355.561681 810.140829 349.108007 810.140829c-121.227834 0-219.488182-99.842131-219.488182-223.031376s98.197077-223.031376 219.424911-223.031376c27.269936 0 53.400988 5.061705 77.444086 14.362588C355.498409 436.333917 310.006336 525.23011 310.006336 625.00897L310.006336 625.00897zM310.006336 625.00897"  horiz-adv-x="1024" />

    
    <glyph glyph-name="ironstone" unicode="&#58880;" d="M512.361 878.35l-428.664-247.484-0.351-494.35 428.293-246.866 428.651 247.484 0.362 494.35zM669.937 692.324l35.646-20.541c-3.758-5.511-10.007-9.082-17.090-9.082-11.391 0-20.623 9.234-20.623 20.623 0 3.274 0.763 6.37 2.12 9.119zM553.248 759.567l80.927-46.619c-4.646-8.476-7.379-18.569-7.379-29.302 0-34.17 27.701-61.871 61.871-61.871 22.154 0 41.587 11.642 52.517 29.145l75.788-43.336-164.732-95.137-98.994 54.972zM470.752 759.073v-191.862l-98.199-54.655-164.372 94.87zM166.132 536.512l160.38-92.601-0.125-119.327-160.483-92.674zM356.416 74.345l-35.7 20.625c3.556 6.505 10.35 10.843 18.158 10.843 11.391 0 20.623-9.234 20.623-20.623 0-4.015-1.147-7.762-3.132-10.931zM474.877 6.062l-82.732 47.681c5.779 9.235 9.208 20.453 9.208 32.474 0 34.17-27.701 61.871-61.871 61.871-23.441 0-43.838-13.035-54.334-32.253l-78.088 44.596 164.701 95.106 103.118-57.243zM408.882 329.286l0.084 109.172 103.191 57.391 102.964-57.139-0.084-109.172-103.222-57.395zM557.373 11.31v191.8l94.87 52.767 164.35-94.87zM857.841 184.786l-0.691-0.393 0.691 1.186zM857.841 232.395l-160.381 92.6 0.093 118.381 160.513 92.673z"  horiz-adv-x="1024" />

    
    <glyph glyph-name="rizhi" unicode="&#59037;" d="M568.888889-14.222222H56.888889V782.222222h739.555555v-398.222222h-56.888888V725.333333H113.777778v-682.666666h398.222222zM711.111111 384c108.088889 0 199.111111-91.022222 199.111111-199.111111S819.2-14.222222 711.111111-14.222222 512 76.8 512 184.888889 603.022222 384 711.111111 384m0 56.888889C568.888889 440.888889 455.111111 327.111111 455.111111 184.888889s113.777778-256 256-256 256 113.777778 256 256S853.333333 440.888889 711.111111 440.888889zM227.555556 839.111111h56.888888v-170.666667H227.555556zM568.888889 839.111111h56.888889v-170.666667h-56.888889zM170.666667 554.666667h512v-56.888889H170.666667zM170.666667 384h284.444444v-56.888889H170.666667zM170.666667 213.333333h227.555555v-56.888889H170.666667zM853.333333 99.555556h-170.666666v227.555555h56.888889v-170.666667h113.777777z"  horiz-adv-x="1024" />

    
    <glyph glyph-name="xitongguanli" unicode="&#58890;" d="M341.333333 896H136.533333a136.533333 136.533333 0 0 1-136.533333-136.533333v-204.8a136.533333 136.533333 0 0 1 136.533333-136.533334h204.8a136.533333 136.533333 0 0 1 136.533334 136.533334V759.466667a136.533333 136.533333 0 0 1-136.533334 136.533333z m68.266667-341.333333a68.266667 68.266667 0 0 0-68.266667-68.266667H136.533333a68.266667 68.266667 0 0 0-68.266666 68.266667V759.466667a68.266667 68.266667 0 0 0 68.266666 68.266666h204.8a68.266667 68.266667 0 0 0 68.266667-68.266666zM887.466667 896h-204.8a136.533333 136.533333 0 0 1-136.533334-136.533333v-204.8a136.533333 136.533333 0 0 1 136.533334-136.533334h204.8a136.533333 136.533333 0 0 1 136.533333 136.533334V759.466667a136.533333 136.533333 0 0 1-136.533333 136.533333z m68.266666-341.333333a68.266667 68.266667 0 0 0-68.266666-68.266667h-204.8a68.266667 68.266667 0 0 0-68.266667 68.266667V759.466667a68.266667 68.266667 0 0 0 68.266667 68.266666h204.8a68.266667 68.266667 0 0 0 68.266666-68.266666zM341.333333 349.866667H136.533333a136.533333 136.533333 0 0 1-136.533333-136.533334v-204.8a136.533333 136.533333 0 0 1 136.533333-136.533333h204.8a136.533333 136.533333 0 0 1 136.533334 136.533333v204.8a136.533333 136.533333 0 0 1-136.533334 136.533334z m68.266667-341.333334a68.266667 68.266667 0 0 0-68.266667-68.266666H136.533333a68.266667 68.266667 0 0 0-68.266666 68.266666v204.8a68.266667 68.266667 0 0 0 68.266666 68.266667h204.8a68.266667 68.266667 0 0 0 68.266667-68.266667zM887.466667 349.866667h-204.8a136.533333 136.533333 0 0 1-136.533334-136.533334v-204.8a136.533333 136.533333 0 0 1 136.533334-136.533333h204.8a136.533333 136.533333 0 0 1 136.533333 136.533333v204.8a136.533333 136.533333 0 0 1-136.533333 136.533334z m68.266666-341.333334a68.266667 68.266667 0 0 0-68.266666-68.266666h-204.8a68.266667 68.266667 0 0 0-68.266667 68.266666v204.8a68.266667 68.266667 0 0 0 68.266667 68.266667h204.8a68.266667 68.266667 0 0 0 68.266666-68.266667z"  horiz-adv-x="1024" />

    
    <glyph glyph-name="xitongpeizhi" unicode="&#58897;" d="M465.3 179.5H163.8c-24.8 0-45 20.2-45 45v443c0 24.8 20.2 45 45 45h673c24.8 0 45-20.2 45-45v-290.9c0-8.3-6.7-15-15-15s-15 6.7-15 15V667.5c0 8.3-6.7 15-15 15h-673c-8.3 0-15-6.7-15-15v-443c0-8.3 6.7-15 15-15h301.5c8.3 0 15-6.7 15-15s-6.7-15-15-15zM428.6 84.9H572M572 69.9H428.6c-10.2 0-18.5 6.7-18.5 15s8.3 15 18.5 15H572c10.2 0 18.5-6.7 18.5-15s-8.3-15-18.5-15zM739.2 397.3c29 0 56.5-6.9 80.8-19.1V622.9c0 16.5-13.5 30-30 30H227.7c-16.5 0-30-13.5-30-30v-343.6c0-16.5 13.5-30 30-30h333.2c15.8 84 89.9 148 178.3 148zM523.5 194.5h12.2M535.7 179.5h-12.2c-8.3 0-15 6.7-15 15s6.7 15 15 15h12.2c8.3 0 15-6.7 15-15s-6.7-15-15-15zM353.4 528.9H315c-6 0-10.9 4.9-10.9 10.9v38.4c0 6 4.9 10.9 10.9 10.9h38.4c6 0 10.9-4.9 10.9-10.9v-38.4c0-6-4.8-10.9-10.9-10.9zM353.4 513.9H315c-14.3 0-25.9 11.6-25.9 25.9v38.4c0 14.3 11.6 25.9 25.9 25.9h38.4c14.3 0 25.9-11.6 25.9-25.9v-38.4c0-14.3-11.6-25.9-25.9-25.9z m-34.3 30h30.3v30.3h-30.3v-30.3zM426.9 559H653M653 544H426.9c-8.3 0-15 6.7-15 15s6.7 15 15 15H653c8.3 0 15-6.7 15-15s-6.7-15-15-15zM643.1 417.9h-38.4c-6 0-10.9 4.9-10.9 10.9v38.4c0 6 4.9 10.9 10.9 10.9h38.4c6 0 10.9-4.9 10.9-10.9v-38.4c0-6-4.9-10.9-10.9-10.9zM643.1 402.9h-38.4c-14.3 0-25.9 11.6-25.9 25.9v38.4c0 14.3 11.6 25.9 25.9 25.9h38.4c14.3 0 25.9-11.6 25.9-25.9v-38.4c0-14.3-11.6-25.9-25.9-25.9z m-34.3 30H639v30.3h-30.3v-30.3zM306.3 448h226.1M532.4 433H306.3c-8.3 0-15 6.7-15 15s6.7 15 15 15h226.1c8.3 0 15-6.7 15-15s-6.7-15-15-15zM353.4 306.8H315c-6 0-10.9 4.9-10.9 10.9v38.4c0 6 4.9 10.9 10.9 10.9h38.4c6 0 10.9-4.9 10.9-10.9v-38.4c0-6-4.8-10.9-10.9-10.9zM353.4 291.8H315c-14.3 0-25.9 11.6-25.9 25.9v38.4c0 14.3 11.6 25.9 25.9 25.9h38.4c14.3 0 25.9-11.6 25.9-25.9v-38.4c0-14.2-11.6-25.9-25.9-25.9z m-34.3 30h30.3v30.3h-30.3v-30.3zM426.9 337h38.7M465.6 322h-38.7c-8.3 0-15 6.7-15 15s6.7 15 15 15h38.7c8.3 0 15-6.7 15-15s-6.7-15-15-15zM751.2 209.5m-32.5 0a32.5 32.5 0 1 1 65 0 32.5 32.5 0 1 1-65 0ZM889.1 233h-17.7c-2.8 14.4-8.1 27.8-15.5 39.9l13.4 13.4c6.3 6.3 6.3 16.5 0 22.7l-14.5 14.5c-6.3 6.3-16.5 6.3-22.7 0l-12.6-12.6c-11.8 7.9-25 13.9-39.1 17.4v19c0 8.8-7.2 16.1-16.1 16.1h-20.5c-8.8 0-16.1-7.2-16.1-16.1v-17.7c-14.4-2.8-27.8-8.1-39.9-15.5l-13.4 13.4c-6.3 6.3-16.5 6.3-22.7 0L637.2 313c-6.3-6.3-6.3-16.5 0-22.7l12.6-12.6c-7.9-11.8-13.9-25-17.4-39.1h-19c-8.8 0-16.1-7.2-16.1-16.1V202c0-8.8 7.2-16.1 16.1-16.1h17.7c2.8-14.4 8.1-27.8 15.5-39.9l-13.4-13.4c-6.3-6.3-6.3-16.5 0-22.7l14.5-14.5c6.3-6.3 16.5-6.3 22.7 0L683 108c11.8-7.9 25-13.9 39.1-17.4v-19c0-8.8 7.2-16.1 16.1-16.1h20.5c8.8 0 16.1 7.2 16.1 16.1v17.7c14.4 2.8 27.8 8.1 39.9 15.5l13.4-13.4c6.3-6.3 16.5-6.3 22.7 0l14.5 14.5c6.3 6.3 6.3 16.5 0 22.7l-12.6 12.6c7.9 11.8 13.9 25 17.4 39.1h19c8.8 0 16.1 7.2 16.1 16.1v20.5c0 8.9-7.2 16.1-16.1 16.1zM751.2 117c-51 0-92.4 41.5-92.4 92.4s41.5 92.4 92.4 92.4 92.4-41.5 92.4-92.4-41.4-92.4-92.4-92.4z"  horiz-adv-x="1024" />

    
    <glyph glyph-name="mineral" unicode="&#58961;" d="M437.706 469.215h-0.09405a37.9374 37.9374 0 1 1 0.09405 0ZM1087.11 338.62699999999995h-62.1436a11.2507 11.2507 0 0 1-0.1881 2.12788L958.862 726.066a37.3849 37.3849 0 0 1-26.1812 29.3906l-263.34 77.0388a36.9969 36.9969 0 0 1-39.7832-13.167l-107.723-141.781-36.0212 31.6714a37.044 37.044 0 0 1-24.3708 9.14633h-131.67a37.2908 37.2908 0 0 1-34.5987-23.9475L163.28 347.703v-0.117563a41.3115 41.3115 0 0 1-2.01032-8.95825H99.032a37.1615 37.1615 0 0 1 0-74.3112H148.996l77.5912-172.934c0.670106-14.2368 16.6939-25.2525 37.0322-25.2525h0.387956a99.6459 99.6459 0 0 1-4.50264-28.9204c0-56.912 46.1785-103.208 102.95-103.208s102.961 46.2961 102.961 103.208a99.3994 99.3994 0 0 1-4.5144 28.9204H725.17a100.927 100.927 0 0 1-4.43211-28.9204c0-56.912 46.1903-103.208 102.961-103.208s102.973 46.2961 102.973 103.208a99.7753 99.7753 0 0 1-4.50264 28.9204h0.387956c19.9856 0 36.3385 11.2507 37.0322 25.2525l77.5912 172.934H1087.15a36.8089 36.8089 0 0 1 26.24 10.8981A37.1968 37.1968 0 0 1 1087.15 338.62699999999995ZM852.608 37.22000000000003a28.8263 28.8263 0 1 0-28.8381 28.9204 28.9792 28.9792 0 0 0 28.8381-28.9204Zm-461.21 0a28.8263 28.8263 0 1 0-28.8381 28.9204 28.9674 28.9674 0 0 0 28.8734-28.9204ZM239.12 338.62699999999995l116.022 305.533h92.2518l55.3132-48.6473a38.1138 38.1138 0 0 1 28.0975-9.01705 36.7383 36.7383 0 0 1 25.7814 14.5072l116.281 153.102 216.844-63.3897 60.4742-352.088Zm716.943-74.2995l-55.6306-123.899H285.957l-55.5835 123.899ZM739.83 553.742a36.4444 36.4444 0 0 1-50.2932 0l-63.0253-60.7915a33.7404 33.7404 0 0 1 0-48.8943 36.4444 36.4444 0 0 1 50.305 0l37.9021 36.515 37.961-36.5855a36.4444 36.4444 0 0 1 50.258 0 33.7404 33.7404 0 0 1 0 48.9412Z"  horiz-adv-x="1208" />

    
    <glyph glyph-name="zhengce" unicode="&#59065;" d="M910.258 826.66L515.061 713.751 119.863 826.661C82.728 837.273 51.5 814.413 51.5 775.21v-571.196c0-38.502 29.218-83.518 65.266-98.964l368.688-158.013c10.597-4.535 20.68-6.027 29.608-4.845 8.924-1.182 19.01 0.31 29.607 4.845l368.689 158.013c36.047 15.446 65.266 60.464 65.266 98.964V775.21c0 39.203-31.227 62.063-68.365 51.45z m-63.872-442.157l-212.974-71.729c-18.657-6.284-38.883 3.744-45.173 22.409-6.285 18.664 3.755 38.892 22.421 45.174l212.965 71.73c18.664 6.284 38.892-3.75 45.174-22.414 6.29-18.659-3.75-38.884-22.413-45.17z m0-142.633l-212.974-71.73c-18.657-6.284-38.883 3.745-45.173 22.41-6.285 18.664 3.755 38.889 22.421 45.174l212.965 71.728c18.664 6.285 38.892-3.755 45.174-22.42 6.29-18.651-3.75-38.878-22.413-45.162z m0 285.268l-212.974-71.73c-18.657-6.283-38.883 3.75-45.173 22.409-6.285 18.667 3.755 38.891 22.421 45.176l212.965 71.73c18.664 6.284 38.892-3.75 45.174-22.415 6.29-18.66-3.75-38.884-22.413-45.17zM384.953 302.903l-83.843 44.07-83.844-44.07 16.013 93.347-67.824 66.124 93.734 13.617 41.92 84.934 41.921-84.934 93.734-13.617-67.824-66.124 16.013-93.347z"  horiz-adv-x="1024" />

    
    <glyph glyph-name="tenantuser" unicode="&#58987;" d="M512 305.33299999999997c-140 0-250 110-250 250s109.999 250 250 250 250-110 250-250-109.999-250-250-250z m0 50.001c110 0 200 90 200 200s-90 200-200 200-200-90-200-200 90-200.002 200-200.002zM112-44.66700000000003c0 220 180 400 400 400s400-180 400-400h-50c0 195-155 350-350 350s-350-155-350-350h-50z"  horiz-adv-x="1024" />

    
    <glyph glyph-name="kuanggong" unicode="&#58902;" d="M271.675676-100.498538c0-3.636212-7.02165-6.603694-15.673325-6.603695s-15.673325 2.967483-15.673325 6.603695V199.760582c0 3.636212 7.02165 6.603694 15.673325 6.603694s15.673325-2.967483 15.673325-6.603694v-300.25912zM355.266746-99.599934c0-4.137758-7.02165-7.502298-15.673326-7.502299s-15.673325 3.343643-15.673325 7.502299V240.636615c0 4.137758 7.02165 7.502298 15.673325 7.502298s15.673325-3.343643 15.673326-7.502298V-99.579037zM985.271735-4.619582a78.366627 78.366627 0 0 0-69.2552-114.833231l-827.091833-1.044889A78.366627 78.366627 0 0 0 19.439626-5.706266C122.6328 190.941724 284.360621 289.955345 502.533311 289.955345c218.130895 0 379.733329-98.637461 482.738424-294.574927z m-27.731337-14.586642C859.926927 166.470439 708.961456 258.608694 502.533311 258.608694c-206.449043 0-357.519002-92.493518-455.341451-278.880704a47.019976 47.019976 0 0 1 41.711944-68.879041l827.070935 1.044889a47.019976 47.019976 0 0 1 41.565659 68.899938zM496.326675 310.853113c122.33553 0 221.808902 97.759755 224.588304 219.426556H271.73837C274.517773 408.612868 373.991145 310.853113 496.326675 310.853113z m255.119942 250.773207l0.626933-15.004597c0.167182-3.698905 0.250773-7.39781 0.250774-11.117612 0-141.373396-114.624253-255.997649-255.997649-255.997649S240.329026 394.130715 240.329026 535.504111c0 3.719803 0.083591 7.418707 0.229875 11.117612l0.647831 15.004597h510.239885zM601.212568 739.257342a67.917744 67.917744 0 0 0-67.917743 67.917743V862.157111a268.954265 268.954265 0 0 1-73.142186 0V807.175085a67.917744 67.917744 0 0 0-135.626509-5.621499A265.944986 265.944986 0 0 1 231.551963 624.319622h530.385333a265.944986 265.944986 0 0 1-93.015962 177.233964 67.917744 67.917744 0 0 0-67.708766-62.296244z m60.958788 106.578613a297.500615 297.500615 0 0 0 132.136582-236.625419l0.585137-16.237565H198.533491l0.585138 16.237565A297.500615 297.500615 0 0 0 331.276109 845.835955a15.673325 15.673325 0 0 0 24.387694-13.019309V807.175085a36.571093 36.571093 0 0 1 73.142186 0V875.489886a15.673325 15.673325 0 0 0 12.789433 15.401655 299.339618 299.339618 0 0 0 110.25662 0 15.673325 15.673325 0 0 0 12.789434-15.401655V807.175085a36.571093 36.571093 0 0 1 73.142185 0V832.816646a15.673325 15.673325 0 0 0 24.387695 13.019309zM151.513515 592.972971a15.673325 15.673325 0 1 0 0 31.346651h711.757055a15.673325 15.673325 0 1 0 0-31.346651H151.513515zM773.222091-100.498538c0-3.636212-7.02165-6.603694-15.673326-6.603695s-15.673325 2.967483-15.673325 6.603695V199.760582c0 3.636212 7.02165 6.603694 15.673325 6.603694s15.673325-2.967483 15.673326-6.603694v-300.25912zM689.631022-99.599934c0-4.137758-7.02165-7.502298-15.673326-7.502299s-15.673325 3.343643-15.673325 7.502299V240.636615c0 4.137758 7.02165 7.502298 15.673325 7.502298s15.673325-3.343643 15.673326-7.502298V-99.579037zM444.082256 363.097531a15.673325 15.673325 0 1 0 0 31.346651h106.557716a15.673325 15.673325 0 1 0 0-31.346651H444.082256z"  horiz-adv-x="1024" />

    
    <glyph glyph-name="caikuangquanzhaopaiguachurangjieguogongshi" unicode="&#59102;" d="M196.34 319.443a14.247 14.247 0 0 1 22.262-4.897c2.671 2.004 13.801 12.689 26.49 25.377l43.409-43.408-99.506-97.503 22.26-22.26 98.171 98.17 96.39-96.39 22.26 22.261-96.389 96.167 76.577 75.464c43.409-19.144 48.084-89.043 48.084-89.043a166.734 166.734 0 0 1-28.717 120.431 189.44 189.44 0 0 1-115.979 62.553c-2.449-4.675 69.9-55.207 72.348-74.574l-74.129-73.238-44.521 44.522 22.26 22.26a18.477 18.477 0 0 1 4.898 12.022c0 9.794-2.449 14.47-12.244 16.918l-98.393 25.6a19.144 19.144 0 0 1-19.367-2.449c-4.897-4.675 2.449-19.144 2.449-19.144a868.174 868.174 0 0 1 31.388-98.839zM957.217 628.87h-28.27L578.782 799.388v7.569a66.783 66.783 0 0 1-133.566 0 58.323 58.323 0 0 1 1.336-12.69L106.184 628.87H66.783A66.783 66.783 0 0 1 0 562.087v-489.74a66.783 66.783 0 0 1 66.783-66.782h890.434A66.783 66.783 0 0 1 1024 72.348V562.087a66.783 66.783 0 0 1-66.783 66.783zM469.482 755.757a66.783 66.783 0 0 1 89.043 3.561L826.991 628.87H208.14z m487.735-683.41H66.783v489.74h890.434zM534.26 339.478h133.566a22.26 22.26 0 0 1 0 44.522H534.261a22.26 22.26 0 0 1 0-44.522z m0-133.565h311.653a22.26 22.26 0 0 1 0 44.522H534.261a22.26 22.26 0 0 1 0-44.522z"  horiz-adv-x="1024" />

    
    <glyph glyph-name="map" unicode="&#58881;" d="M146.24768 366.6432l-30.6176-257.20832 272.76288-51.1488 278.20032 52.992 245.52448-56.65792-35.18464 295.58784 34.24256 269.9776-245.61664 93.21472L370.91328 572.66176 114.20672 681.07264l35.84-282.46016-0.67584-5.62176-0.50176 0.07168-4.07552-26.20416L146.24768 366.6432zM380.42624 359.05535999999995l-6.12352-0.9216L175.60576 388.9152l1.1776 9.78944L146.3296 638.72l212.62336-89.78432L380.42624 359.05535999999995zM852.97152 372.26496l-209.22368 26.50112-4.57728-0.67584-1.00352 9.96352 25.55904 275.07712 3.0208 1.44384 215.48032-81.75616L852.97152 372.26496zM386.048 85.69856000000004l25.05728 238.08-0.16384 1.44384-1.30048 11.4176 205.84448 31.03744 22.6816-232.06912 26.39872 2.59072-22.82496 233.43104 2.304 0.34816 205.68064-26.05056 0.50176 4.01408 31.0784-261.00736-214.20032 49.42848-278.74304-53.10464L386.048 85.69856000000004zM385.49504 550.2361599999999l250.35776 119.57248L611.5328 408.13568l1.36192-14.01856-206.22336-31.09888L385.49504 550.2361599999999zM172.4928 362.56768l201.75872-31.27296 9.1648 1.39264 1.024-9.0112-24.53504-233.08288-214.99904 40.32512L172.4928 362.56768z"  horiz-adv-x="1024" />

    
    <glyph glyph-name="baogao" unicode="&#58945;" d="M772.245854 812.081951v-860.16H80.920976V812.081951h691.324878m19.980487 79.921951H60.940488C27.87278 892.003902 0.999024 865.130146 0.999024 832.062439v-900.120976c0-33.067707 26.873756-59.941463 59.941464-59.941463h731.285853c33.067707 0 59.941463 26.873756 59.941464 59.941463V832.062439c0 33.067707-26.873756 59.941463-59.941464 59.941463zM943.079024 674.216585v-722.294634h-90.911219V674.216585h90.911219m19.980488 79.921952H832.187317c-33.067707 0-59.941463-26.873756-59.941463-59.941464v-822.197073h190.813658c33.067707 0 59.941463 26.873756 59.941464 59.941463V694.197073c0 33.067707-26.873756 59.941463-59.941464 59.941464zM357.650732 672.218537v-136.866342H220.78439V672.218537h136.866342m19.980488 79.921951H200.803902c-33.067707 0-59.941463-26.873756-59.941463-59.941464v-176.827317c0-33.067707 26.873756-59.941463 59.941463-59.941463h176.827318c33.067707 0 59.941463 26.873756 59.941463 59.941463V692.199024c0 33.067707-26.873756 59.941463-59.941463 59.941464zM612.401951 673.217561h-98.903414c-22.078439 0-39.960976 17.882537-39.960976 39.960976s17.882537 39.960976 39.960976 39.960975h98.903414c22.078439 0 39.960976-17.882537 39.960976-39.960975s-17.882537-39.960976-39.960976-39.960976zM672.343415 456.429268H513.498537c-22.078439 0-39.960976 17.882537-39.960976 39.960976s17.882537 39.960976 39.960976 39.960976h158.844878c22.078439 0 39.960976-17.882537 39.960975-39.960976s-17.882537-39.960976-39.960975-39.960976zM542.470244 564.823415h-28.971707c-22.078439 0-39.960976 17.882537-39.960976 39.960975s17.882537 39.960976 39.960976 39.960976h28.971707c22.078439 0 39.960976-17.882537 39.960976-39.960976s-17.882537-39.960976-39.960976-39.960975zM208.296585 206.673171c-37.163707 0-67.434146 30.270439-67.434146 67.434146s30.270439 67.434146 67.434146 67.434146 67.434146-30.270439 67.434147-67.434146-30.270439-67.434146-67.434147-67.434146z m0 79.921951c-6.893268 0-12.487805-5.594537-12.487805-12.487805s5.594537-12.487805 12.487805-12.487805 12.487805 5.594537 12.487805 12.487805-5.594537 12.487805-12.487805 12.487805zM208.296585 11.863415c-37.163707 0-67.434146 30.270439-67.434146 67.434146s30.270439 67.434146 67.434146 67.434146 67.434146-30.270439 67.434147-67.434146-30.270439-67.434146-67.434147-67.434146z m0 79.921951c-6.893268 0-12.487805-5.594537-12.487805-12.487805s5.594537-12.487805 12.487805-12.487805 12.487805 5.594537 12.487805 12.487805-5.594537 12.487805-12.487805 12.487805zM671.34439 234.645854H386.622439c-22.078439 0-39.960976 17.882537-39.960976 39.960975s17.882537 39.960976 39.960976 39.960976h284.721951c22.078439 0 39.960976-17.882537 39.960976-39.960976s-17.882537-39.960976-39.960976-39.960975zM671.34439 36.839024H386.622439c-22.078439 0-39.960976 17.882537-39.960976 39.960976s17.882537 39.960976 39.960976 39.960976h284.721951c22.078439 0 39.960976-17.882537 39.960976-39.960976s-17.882537-39.960976-39.960976-39.960976z"  horiz-adv-x="1024" />

    
    <glyph glyph-name="xiangmu" unicode="&#58920;" d="M896 0l-45.44 45.12A63.808 63.808 0 0 0 896 64a64 64 0 0 1 64 64V768a64 64 0 0 1-64 64H256a64 64 0 0 1-64-64v-5.44c0-17.6-7.04-33.536-18.56-45.12L128 762.56V768A128 128 0 0 0 256 896h640a128 128 0 0 0 128-128v-640a128 128 0 0 0-128-128zM64 640v-640a64 64 0 0 1 64-64h640a64 64 0 0 1 64 64V640a64 64 0 0 1-64 64H128a64 64 0 0 1-64-64z m704 128a128 128 0 0 0 128-128v-640a128 128 0 0 0-128-128H128A128 128 0 0 0 0 0V640a128 128 0 0 0 128 128h640zM160 640h384a32 32 0 0 0 0-64H160a32 32 0 0 0 0 64z m576-64a32 32 0 1 0 0 64 32 32 0 0 0 0-64zM64 512h768v-64H64v64z"  horiz-adv-x="1024" />

    
    <glyph glyph-name="baogaoguanli" unicode="&#58933;" d="M833.517037 601.884444H615.822222c-18.394074 3.034074-32.521481 17.825185-34.797037 36.314075V819.579259h-35.555555V892.207407H64.284444C29.297778 892.207407 0.853333 864.047407 0.379259 829.060741V-60.681481c0.379259-34.986667 28.918519-63.146667 63.905185-63.146667h371.57926V-51.2H102.779259c-17.540741 2.56-30.340741 17.825185-29.771852 35.555556V782.601481c1.896296 18.488889 15.834074 33.564444 34.133334 36.977778h401.351111v-237.985185c0.379259-28.444444 23.134815-51.484444 51.484444-52.242963h274.29926l-0.758519 72.533333z m0 0M808.865185 539.496296L518.542222 829.819259c-6.826667 6.826667-10.714074 16.118519-10.714074 25.78963s3.887407 18.962963 10.714074 25.78963c6.826667 6.826667 16.118519 10.714074 25.78963 10.714074s18.962963-3.887407 25.789629-10.714074l290.322963-290.322963c6.826667-6.826667 10.714074-16.118519 10.714075-25.78963s-3.887407-18.962963-10.714075-25.78963c-6.826667-6.826667-16.118519-10.714074-25.789629-10.714074-9.765926 0-18.962963 3.887407-25.78963 10.714074z m0 0M144.118519 674.512593h290.228148v-72.533334H144.118519zM144.118519 456.817778h175.217777v-72.533334H144.118519zM144.118519 239.028148h110.743703v-72.533333H144.118519zM600.841481 133.404444H438.234074c-34.322963 0-62.198519 27.875556-62.198518 62.198519V358.305185c0 34.322963 27.875556 62.198519 62.198518 62.198519h162.702222c34.322963 0 62.198519-27.875556 62.198519-62.198519v-162.702222c0-34.417778-27.875556-62.198519-62.293334-62.198519zM844.231111 127.81037H736.237037c-20.574815 0-37.262222 16.687407-37.262222 37.262223v108.088888c0 20.574815 16.687407 37.262222 37.262222 37.262223h107.994074c20.574815 0 37.262222-16.687407 37.262222-37.262223v-107.994074c0.094815-20.66963-16.687407-37.357037-37.262222-37.357037zM844.231111-128H736.237037c-20.574815 0-37.262222 16.687407-37.262222 37.262222V17.256296c0 20.574815 16.687407 37.262222 37.262222 37.262223h107.994074c20.574815 0 37.262222-16.687407 37.262222-37.262223v-107.994074c0.094815-20.574815-16.687407-37.262222-37.262222-37.262222zM627.2-128H519.205926c-20.574815 0-37.262222 16.687407-37.262222 37.262222V17.256296c0 20.574815 16.687407 37.262222 37.262222 37.262223h107.994074c20.574815 0 37.262222-16.687407 37.262222-37.262223v-107.994074c0.094815-20.574815-16.592593-37.262222-37.262222-37.262222z"  horiz-adv-x="1024" />

    
    <glyph glyph-name="denglurizhi-" unicode="&#59063;" d="M896 768h-85.333333a42.666667 42.666667 0 0 1 0-85.333333h42.666666v-640H170.666667V682.666667h42.666666a42.666667 42.666667 0 0 1 0 85.333333H128a42.666667 42.666667 0 0 1-42.666667-42.666667v-725.333333a42.666667 42.666667 0 0 1 42.666667-42.666667h768a42.666667 42.666667 0 0 1 42.666667 42.666667V725.333333a42.666667 42.666667 0 0 1-42.666667 42.666667zM341.333333 597.333333a42.666667 42.666667 0 0 1 42.666667 42.666667V768a42.666667 42.666667 0 0 1-85.333333 0v-128a42.666667 42.666667 0 0 1 42.666666-42.666667zM512 597.333333a42.666667 42.666667 0 0 1 42.666667 42.666667V768a42.666667 42.666667 0 0 1-85.333334 0v-128a42.666667 42.666667 0 0 1 42.666667-42.666667zM682.666667 597.333333a42.666667 42.666667 0 0 1 42.666666 42.666667V768a42.666667 42.666667 0 0 1-85.333333 0v-128a42.666667 42.666667 0 0 1 42.666667-42.666667zM341.333333 128a42.666667 42.666667 0 0 1 42.666667 42.666667 128 128 0 0 0 256 0 42.666667 42.666667 0 0 1 85.333333 0 213.333333 213.333333 0 0 1-107.52 184.32A128 128 0 0 1 640 426.666667a128 128 0 0 1-256 0 128 128 0 0 1 22.186667-71.68A213.333333 213.333333 0 0 1 298.666667 170.666667a42.666667 42.666667 0 0 1 42.666666-42.666667z m128 298.666667a42.666667 42.666667 0 1 0 42.666667-42.666667 42.666667 42.666667 0 0 0-42.666667 42.666667z"  horiz-adv-x="1024" />

    
    <glyph glyph-name="kuangshanjixie" unicode="&#58953;" d="M345.6 618.666667h122.453333l-137.173333 192h-69.973333l-12.16-46.293334L204.16 832H122.666667L35.626667 533.333333h366.933333z m-51.84 149.333333h15.36l76.16-106.666667h-68.053333l-36.906667 55.466667zM154.453333 789.333333h26.666667l141.653333-213.333333H92.373333zM426.666667 324.693333l292.266666 177.92 182.613334-302.506666 36.48 21.333333-182.613334 303.36 221.226667 134.613333-210.56 158.08L426.666667 478.08z m42.666666 135.893334L769.92 761.173333l130.773333-97.92L469.333333 400.64zM983.68 61.653333H519.466667l42.666666 130.346667h-32.64l-22.4 111.36-108.586666-27.093333L341.333333 256l-91.093333 22.826667L161.92 192h-64l45.866667-130.346667H66.346667v-42.666666h85.333333A62.08 62.08 0 0 1 149.333333 0a64 64 0 0 1 4.693334-23.68H66.346667v-42.666667h917.333333v42.666667H528.853333a58.24 58.24 0 0 1 0 42.666667h454.826667zM503.68 149.333333l-28.373333-85.333333H188.16l-30.08 85.333333z m-241.066667 82.986667L341.333333 213.333333l69.12 21.333334 64 16 11.52-58.666667H222.08z m-40.106666-213.333333A21.333333 21.333333 0 0 0 234.666667 0a21.333333 21.333333 0 0 0-42.666667 0 21.333333 21.333333 0 0 0 12.16 18.986667z m50.133333-42.666667A64 64 0 0 1 277.333333 0a62.08 62.08 0 0 1-3.2 18.986667h134.826667a58.24 58.24 0 0 1 0-42.666667zM490.666667-1.066667a21.333333 21.333333 0 1 0-21.333334 20.053334 21.333333 21.333333 0 0 0 21.333334-20.053334z"  horiz-adv-x="1024" />

    
    <glyph glyph-name="API" unicode="&#59421;" d="M930.772 297.988l-57.224 145.08H802.8l-56.956-145.08-143.064 62.108-43.524-43.524-6.36-6.628 62.016-142.704-144.856-56.912v-70.792l144.9-57.092-41.824-96.272h370.756c44.152 0 80.108 35.912 80.108 80.064v372.276l-93.224-40.524z m79.796-331.756c0-36.764-29.912-66.632-66.672-66.632h-350.248l39.136 90.272-149.288 58.792v52.524l149.332 58.612-64.076 147.272 37.076 37.076 147.452-64.032 58.66 149.512h52.48l58.928-149.468 87.228 37.836v-351.764zM914.744 259.296l-60.988 154.66h-31.12l-60.72-154.66-152.556 66.228-21.984-21.984 66.272-152.38-154.48-60.672v-31.164l154.48-60.808-46.752-105.624 337-0.008c44.2 0 73.392 35.392 73.392 73.344l-0.02 338.992-102.524-45.924z m-72.452-332.292c-49.612 0-96.092 26.552-121.168 69.092-12.94 21.496-19.792 46.3-19.792 71.688 0 77.732 63.224 140.96 140.96 140.96 24.536 0 48.672-6.448 69.672-18.54 43.972-25.028 71.284-71.912 71.284-122.42 0.004-77.552-63.22-140.732-140.956-140.78zM340.208 772.496l5.368 13.288a54.72 54.72 0 0 1 3.976 20.624c0 9.848-2.58 19.484-7.464 27.872l-8.46 14.532h610.228c25.96 0 47.08-21.088 47.08-47.008v-29.308H340.208zM72.304 772.496l-5.368 13.288a54.72 54.72 0 0 0-3.976 20.624c0 9.848 2.58 19.484 7.464 27.872l8.456 14.532c-25.96 0-43.484-21.088-43.484-47.008v-29.308h36.908zM13.432 753.528h997.112v-13.432H13.432zM116.112 770.12c-20.016 0-36.3 16.284-36.3 36.304s16.284 36.304 36.3 36.304 36.304-16.284 36.304-36.304-16.288-36.304-36.304-36.304z m0 59.172c-12.608 0-22.868-10.26-22.868-22.868s10.26-22.868 22.868-22.868c12.612 0 22.868 10.26 22.868 22.868s-10.256 22.868-22.868 22.868zM204.872 770.12c-20.016 0-36.3 16.284-36.3 36.304 0 20.016 16.284 36.3 36.3 36.3 20.02 0 36.304-16.284 36.304-36.3 0-20.02-16.288-36.304-36.304-36.304z m0 59.172c-12.608 0-22.868-10.26-22.868-22.868s10.26-22.868 22.868-22.868c12.612 0 22.868 10.26 22.868 22.868s-10.256 22.868-22.868 22.868zM293.632 770.12c-20.016 0-36.304 16.284-36.304 36.304 0 20.016 16.288 36.3 36.304 36.3s36.304-16.284 36.304-36.3c-0.004-20.02-16.288-36.304-36.304-36.304z m0 59.172c-12.612 0-22.868-10.26-22.868-22.868s10.26-22.868 22.868-22.868 22.868 10.26 22.868 22.868-10.26 22.868-22.868 22.868zM943.892-113.824H80.084C35.928-113.824 0-77.92 0-33.788V801.792c0 13.348 3.34 26.54 9.664 38.156a80 80 0 0 0 13.812 18.404 80.756 80.756 0 0 0 11.768 9.776 82.324 82.324 0 0 0 13.664 7.372 79.588 79.588 0 0 0 31.176 6.328h863.808c10.76 0 21.248-2.132 31.18-6.332a80.54 80.54 0 0 0 13.58-7.316 81.16 81.16 0 0 0 11.884-9.864 79.94 79.94 0 0 0 13.78-18.376 80 80 0 0 0 9.66-38.148v-835.58c0.004-44.132-35.924-80.036-80.084-80.036zM80.084 868.396c-8.952 0-17.68-1.772-25.944-5.268-3.948-1.668-7.768-3.724-11.364-6.12a66.86 66.86 0 0 1-9.764-8.116 66.852 66.852 0 0 1-11.548-15.356 66.58 66.58 0 0 1-8.032-31.744v-835.58c0-36.724 29.9-66.604 66.652-66.604h863.808c36.752 0 66.652 29.88 66.652 66.604V801.792c0 11.112-2.776 22.084-8.028 31.736a66.86 66.86 0 0 1-11.512 15.328 67.552 67.552 0 0 1-9.884 8.204 67.08 67.08 0 0 1-11.256 6.056 66.292 66.292 0 0 1-25.976 5.284H80.084zM340.208 772.496l5.368 13.288a54.72 54.72 0 0 1 3.976 20.624c0 9.848-2.58 19.484-7.464 27.872l-8.46 14.532h610.228c25.96 0 47.08-21.088 47.08-47.008v-29.308H340.208zM72.304 772.496l-5.368 13.288a54.72 54.72 0 0 0-3.976 20.624c0 9.848 2.58 19.484 7.464 27.872l8.456 14.532c-25.96 0-43.484-21.088-43.484-47.008v-29.308h36.908zM13.432 753.528h997.112v-13.432H13.432zM116.112 770.12c-20.016 0-36.3 16.284-36.3 36.304s16.284 36.304 36.3 36.304 36.304-16.284 36.304-36.304-16.288-36.304-36.304-36.304z m0 59.172c-12.608 0-22.868-10.26-22.868-22.868s10.26-22.868 22.868-22.868c12.612 0 22.868 10.26 22.868 22.868s-10.256 22.868-22.868 22.868zM204.872 770.12c-20.016 0-36.3 16.284-36.3 36.304 0 20.016 16.284 36.3 36.3 36.3 20.02 0 36.304-16.284 36.304-36.3 0-20.02-16.288-36.304-36.304-36.304z m0 59.172c-12.608 0-22.868-10.26-22.868-22.868s10.26-22.868 22.868-22.868c12.612 0 22.868 10.26 22.868 22.868s-10.256 22.868-22.868 22.868zM293.632 770.12c-20.016 0-36.304 16.284-36.304 36.304 0 20.016 16.288 36.3 36.304 36.3s36.304-16.284 36.304-36.3c-0.004-20.02-16.288-36.304-36.304-36.304z m0 59.172c-12.612 0-22.868-10.26-22.868-22.868s10.26-22.868 22.868-22.868 22.868 10.26 22.868 22.868-10.26 22.868-22.868 22.868zM385.12 568.316h520.864v-13.432H385.12zM126.924 441.376h535.36v-13.432H126.924zM126.924 314.056h305.04v-13.432h-305.04zM126.924 180.032h260.228v-13.432H126.924zM126.924 39.456h260.228v-13.432H126.924zM255.332 665.26H217.44v-112.628h13.432V598.664h24.456c18.36 0 33.3 14.936 33.3 33.3s-14.936 33.296-33.296 33.296z m0-53.164h-24.456v39.732h24.456a19.888 19.888 0 0 0 19.864-19.864 19.888 19.888 0 0 0-19.864-19.868zM159.624 664.844c-19.264 0-34.936-15.672-34.936-34.936v-77.276h13.432V597.136h43v-44.504h13.432V629.908c0.004 19.264-15.668 34.936-34.928 34.936zM138.12 610.572v19.34a21.524 21.524 0 0 0 21.5 21.5 21.524 21.524 0 0 0 21.5-21.5v-19.34H138.12zM316.7 661.076h13.432v-108.44h-13.432zM842.252-56.444c-68.596 0-124.4 55.78-124.4 124.34s55.804 124.336 124.4 124.336 124.4-55.776 124.4-124.336-55.804-124.34-124.4-124.34z m0 235.244c-61.188 0-110.968-49.752-110.968-110.904 0-61.152 49.78-110.904 110.968-110.904s110.968 49.752 110.968 110.904c0 61.152-49.78 110.904-110.968 110.904z"  horiz-adv-x="1024" />

    
    <glyph glyph-name="jinshukuangshanmetalMines" unicode="&#58985;" d="M652.5 290.5c47.3 65.8 69 126.8 78.1 264.7 0 0 127.1 55.6 249.8 140.2h31.2v-747.5H355.9c0 0.2 155.3 146.9 296.6 342.6zM628 360L494.3 540 106.1 134.9s-42.1-9.2-66.7 11.3c-22 18.2-26.9 66.4-26.9 66.4l405.9 404.9S398.3 666.4 168.6 820c0 0 182.9 2.2 327.8-140.2 0 0 24.7 34.1 65.8-7 38.5-38.5-4.1-71.8-3.3-70.7 0 0 55.8-13.2 109.3-109 0 0 5.1-9.2 1-22.5C657.6 432.5 628 360 628 360z m-116 8.6l46.7-15.6v-109h-31.2L465 337.5l47 31.1zM324.7 119.3V243.9l78.1 31.1H434l31.2-62.4v-46.7L355.9 119h-31.2v0.3z"  horiz-adv-x="1024" />

    
    <glyph glyph-name="kuangquanleixinggengzheng" unicode="&#59164;" d="M876.032 832H147.968C101.632 832 64 794.368 64 748.032v-728.064C64-26.368 101.632-64 147.968-64h728.064c46.336 0 83.968 37.632 83.968 83.968V748.032C960 794.368 922.368 832 876.032 832z m-728.064-59.712h728.96c13.44 0 23.36-10.88 23.36-24.32V630.4H123.712V748.032c0 13.376 10.88 24.256 24.32 24.256z m728.064-776.576H147.968a24.32 24.32 0 0 0-24.256 24.32V565.76h776.576v-545.856c0-13.376-10.88-24.256-24.32-24.256z m-80.32 739.2h67.2v-67.2h-67.2v67.2z m-134.4 0h67.2v-67.2h-67.2v67.2z m-141.824 0h67.2v-67.2h-67.2v67.2zM818.112 350.4H519.488c-12.416 0-22.4 12.544-22.4 27.968 0 15.488 9.984 28.032 22.4 28.032h298.624c12.416 0 22.4-12.544 22.4-28.032 0-15.424-9.984-27.968-22.4-27.968zM820.864 128H522.176c-12.352 0-22.4 12.544-22.4 28.032s10.048 27.968 22.4 27.968h298.688c12.352 0 22.4-12.48 22.4-27.968s-10.048-28.032-22.4-28.032zM280.512 185.6h67.2v-67.2h-67.2zM320.64 314.432a22.4 22.4 0 0 0-15.616 6.4l-87.808 85.76a22.4 22.4 0 1 0 31.36 32l68.8-67.2L427.968 531.2a22.4 22.4 0 0 0 36.8-25.472L339.072 324.096a22.4 22.4 0 0 0-18.432-9.664z"  horiz-adv-x="1024" />

    
    <glyph glyph-name="tankuangquancaikuangquanpinggu" unicode="&#59052;" d="M930.9 22L874 100.6c32.4 32.2 52.5 76.7 52.5 126 0 98-79.5 177.5-177.5 177.5s-177.5-79.5-177.5-177.5S651 49.1 749 49.1c25.7 0 50.1 5.5 72.2 15.3l57.8-80c10.4-14.3 30.4-17.5 44.7-7.2 14.3 10.5 17.5 30.5 7.2 44.8zM635.5 226.6c0 62.6 50.9 113.5 113.5 113.5s113.5-50.9 113.5-113.5S811.6 113.2 749 113.2s-113.5 50.9-113.5 113.4zM897 459.8c-20.3 70-44.3 125.5-71.6 165.3-29.3 42.8-63.2 69.1-100.9 78.3-35.6 8.6-72.6 1.9-109.9-20.1-20.1-11.9-37.2-26.4-50.3-39.2L436.7 785.6c-14.2 15.7-38 17.4-54.2 3.7L192.4 629.4l-78.6-310.2H80.1l58.7-196.6c-5.3-13.1-8.3-27.4-8.3-42.4 0-2.4 0.1-4.8 0.2-7.2 3.7-58.1 51.4-104.1 109.7-104.1 37.5 0 70.6 19 90.4 48h253.6l-19 64H350.3c0 8-0.9 15.9-2.6 23.4-10.9 49.9-54.8 87.2-107.3 87.2-18.6 0-36.2-4.7-51.6-13L166 255.2h347.8l-19 64h-315l69.5 274.5 155.9 131.2 124-137.7c8.8-9.8 21.4-15.4 34.6-15.4h0.1c13.2 0 25.8 5.7 34.6 15.5 17.8 20 64.3 65.1 110.7 53.9 21.9-5.3 43.1-22.9 63.2-52.2 23.5-34.3 44.6-83.7 62.9-147.1 4-14 16.8-23.1 30.7-23.1 2.7 0 5.3 0.3 8 1 17.8 4.6 28 22.7 23 40zM208.2 113.9c1.7 1.8 3.6 3.4 5.7 4.9 5.4 4 14.4 8.8 26.6 8.8 21.3 0 40.1-15.5 44.8-36.8 0.7-3.2 1.1-6.5 1.1-9.8v-0.7c0-7.8-1.8-15.2-5.2-22-8-15.7-23.6-25.4-40.7-25.4-24.1 0-44.2 19.4-45.8 44.1-0.1 1.1-0.1 2.2-0.1 3.2-0.1 13 4.8 24.9 13.6 33.7z"  horiz-adv-x="1024" />

    
    <glyph glyph-name="caikuangye" unicode="&#58941;" d="M868.592941 559.766588v-66.258823h66.258824l-66.258824 66.258823z m96.828235-112.097882v-259.794824c0-15.299765-10.209882-25.479529-25.479529-25.479529-15.269647 0-25.479529 10.179765-25.479529 25.479529v259.794824H568.048941v-76.408471c0-20.389647-20.389647-40.749176-40.779294-40.749176H450.861176v-377.012706h178.296471c25.479529 0 40.779294-20.359529 40.779294-40.749177 0-20.359529-20.389647-40.749176-40.749176-40.749176H68.788706C43.309176-128 28.009412-107.610353 28.009412-87.250824c0 20.389647 20.389647 40.749176 40.779294 40.749177h178.29647V442.578824H28.009412c-15.269647 0-25.449412 10.209882-25.449412 25.479529V615.785412c0 5.12 5.089882 15.299765 10.179765 20.389647L252.175059 885.820235C257.295059 890.88 262.354824 896 272.564706 896c5.089882 0 10.179765 0 10.179765-5.12l565.488941-249.615059 152.847059-147.727059a24.636235 24.636235 0 0 0 0-35.659294c-5.12-5.12-10.179765-5.12-20.389647-5.12h-15.269648v-5.089882z m-489.110588 142.667294l76.438588-76.438588v76.438588h-76.40847z m-76.378353-259.824941H298.044235v-66.258824h101.888v66.258824z m-10.209882 229.255529h-61.138824v-152.847059h152.847059v56.018824l-91.708235 96.828235z m-91.678118-606.268235h101.888v117.187765H298.044235v-117.157647z m0 687.766588h86.588236L298.044235 778.842353v-137.547294z m427.91153 0L333.703529 814.501647l106.977883-173.236706h285.274353z m-478.870589 163.026824L84.058353 636.175059h163.026823V804.291765z m458.511059-310.753883V590.305882h-101.888v-96.798117h101.888z m50.928941 96.798118v-96.798118h61.138824V590.305882h-61.138824z m-509.44 0H175.766588v-96.798118h71.318588V590.305882z m-122.277647 0H53.488941v-96.798118h71.318588V590.305882z m173.206589-473.810824h101.918117v101.888H298.014118v-101.888z"  horiz-adv-x="1024" />

    


  </font>
</defs>
</svg>
